<?xml version="1.0" standalone="no"?>
<!DOCTYPE svg PUBLIC "-//W3C//DTD SVG 20010904//EN"
 "http://www.w3.org/TR/2001/REC-SVG-20010904/DTD/svg10.dtd">
<svg version="1.0" xmlns="http://www.w3.org/2000/svg"
 width="512.000000pt" height="512.000000pt" viewBox="0 0 512.000000 512.000000"
 preserveAspectRatio="xMidYMid meet">

<g transform="translate(0.000000,512.000000) scale(0.100000,-0.100000)"
fill="#000000" stroke="none">
<path d="M1959 3773 c0 -10 -4 -42 -8 -71 -7 -47 -5 -54 12 -63 10 -6 20 -9
22 -7 6 6 21 148 17 153 -13 12 -42 3 -43 -12z"/>
<path d="M1780 3725 c-9 -11 -5 -26 22 -74 31 -55 36 -60 53 -48 17 13 16 17
-15 75 -35 66 -41 70 -60 47z"/>
<path d="M2088 3624 c-42 -62 -44 -67 -24 -83 12 -10 22 -2 57 45 31 43 40 61
32 72 -17 28 -27 22 -65 -34z"/>
<path d="M1740 3453 c-97 -20 -205 -91 -264 -172 -144 -195 -78 -488 113 -503
42 -3 41 -30 -3 -57 -53 -33 -115 -107 -148 -177 -33 -70 -48 -144 -29 -144
13 0 14 -51 2 -100 -5 -19 -12 -47 -15 -61 -4 -18 -14 -29 -31 -33 -13 -3 -29
-15 -35 -27 -15 -27 -15 -281 0 -308 6 -12 28 -30 49 -40 l38 -20 11 -98 c16
-128 17 -188 8 -363 -7 -121 -5 -152 7 -183 29 -67 112 -98 211 -77 95 20 110
69 46 146 -55 66 -54 105 4 261 24 65 49 142 57 171 7 28 18 52 24 52 19 0 37
-104 30 -173 -11 -114 -12 -147 -6 -152 4 -2 3 -36 -2 -74 -7 -51 -7 -74 2
-84 16 -20 109 -37 238 -44 109 -6 111 -5 136 19 18 18 24 33 20 47 -9 34 -67
78 -121 91 l-51 12 5 56 c3 32 14 86 25 121 20 67 24 169 10 314 -5 61 -4 81
7 90 11 9 13 35 8 127 -4 63 -9 133 -12 155 -4 34 -1 45 27 78 26 32 33 36 43
23 15 -21 124 -25 137 -5 5 8 9 71 9 140 0 157 7 171 96 179 l59 5 3 65 c4 74
-9 91 -61 83 -39 -6 -87 -30 -87 -43 0 -6 -5 -10 -12 -10 -6 0 -8 3 -5 7 4 3
2 12 -4 20 -14 16 -110 18 -127 1 -7 -7 -12 -37 -12 -68 0 -51 -2 -57 -30 -73
-27 -16 -31 -17 -36 -3 -3 9 -11 16 -18 16 -6 0 -19 15 -29 32 -18 31 -18 33
-1 43 57 33 121 96 147 145 39 75 35 133 -16 216 -20 33 -37 67 -37 76 0 9 16
29 35 43 43 33 95 111 95 142 0 31 -34 63 -68 63 -15 0 -51 -6 -80 -14 -45
-11 -54 -11 -64 1 -30 37 -111 65 -193 69 -44 1 -91 0 -105 -3z m219 -78 c29
-14 42 -35 22 -35 -4 0 -46 -25 -92 -56 -46 -31 -75 -53 -64 -49 72 27 299 95
313 94 9 0 -18 -10 -61 -23 -93 -28 -113 -42 -54 -39 l42 2 -40 -8 c-77 -16
-217 -73 -286 -117 -31 -20 -55 -27 -82 -25 -56 3 -98 -43 -126 -136 -12 -38
-21 -78 -21 -88 0 -18 -1 -18 -15 1 -8 10 -14 24 -15 29 0 6 4 3 9 -4 8 -12
11 -9 17 13 9 37 -12 59 -24 25 -8 -21 -11 -17 -21 34 -30 141 57 301 204 372
89 44 221 48 294 10z m231 -46 c0 -5 -20 -31 -44 -57 -44 -46 -45 -46 -63 -28
-17 18 -17 18 4 7 18 -9 26 -6 58 30 29 32 34 43 24 50 -11 7 -10 9 4 9 9 0
17 -5 17 -11z m-138 -146 c9 -10 21 -36 28 -58 7 -22 23 -58 37 -79 38 -59 41
-106 9 -159 -67 -115 -214 -175 -326 -132 -25 10 -64 20 -87 22 l-42 5 14 28
c19 36 21 70 3 52 -19 -19 -66 -15 -78 7 -15 30 -12 56 11 85 26 32 40 33 77
1 17 -14 33 -25 37 -25 4 0 5 19 4 43 -4 49 26 115 63 139 31 20 199 88 219
88 9 0 23 -8 31 -17z m-352 -453 c-20 -13 -43 -13 -35 0 3 6 16 10 28 10 18 0
19 -2 7 -10z m52 -14 c21 -16 58 -93 57 -121 0 -11 -7 1 -15 27 -8 26 -19 50
-24 53 -13 8 -13 4 5 -38 8 -20 14 -58 14 -84 -2 -47 -4 -41 -15 44 -3 23 -17
59 -31 80 -21 32 -22 35 -4 19 11 -11 21 -14 21 -8 0 6 -10 18 -22 26 -12 9
-18 16 -13 16 6 0 18 -7 27 -14z m-59 -56 c26 -30 38 -81 33 -135 -2 -16 -4
-54 -5 -82 -1 -51 -21 -78 -21 -29 0 60 -26 75 -36 21 -4 -21 -13 -37 -25 -40
-22 -7 -77 1 -142 22 -54 17 -54 16 -13 108 37 82 121 165 168 165 9 0 27 -13
41 -30z m247 15 c-7 -8 -25 -15 -40 -15 -15 0 -33 7 -40 15 -11 13 -5 15 40
15 45 0 51 -2 40 -15z m55 -35 c3 -5 1 -47 -6 -92 -13 -88 -26 -106 -111 -162
l-29 -19 7 28 c4 15 7 69 8 120 l1 93 34 0 c21 0 41 8 54 21 24 23 33 26 42
11z m175 -62 c0 -12 -8 -30 -17 -40 -14 -16 -15 -23 -5 -38 27 -45 16 -67 -91
-174 -82 -82 -119 -111 -179 -140 -175 -87 -334 -43 -380 105 -25 77 -24 78
20 68 20 -5 63 -9 94 -9 55 0 57 -1 63 -30 7 -33 30 -50 69 -50 35 0 155 66
226 125 56 47 60 53 61 95 0 45 17 105 18 68 2 -29 16 -28 60 8 51 40 61 42
61 12z m-352 -33 c-3 -3 -9 2 -12 12 -6 14 -5 15 5 6 7 -7 10 -15 7 -18z m-11
-132 c-2 -16 -4 -3 -4 27 0 30 2 43 4 28 2 -16 2 -40 0 -55z m-30 15 c-2 -13
-4 -5 -4 17 -1 22 1 32 4 23 2 -10 2 -28 0 -40z m-9 -58 c-5 -35 9 -40 22 -7
l9 22 0 -22 c1 -19 -33 -43 -44 -31 -4 5 7 68 12 68 3 0 3 -13 1 -30z m-298
-161 c0 -5 -4 -9 -10 -9 -5 0 -10 7 -10 16 0 8 5 12 10 9 6 -3 10 -10 10 -16z
m564 -111 c4 -68 3 -125 -2 -130 -12 -12 -215 -78 -223 -72 -3 2 -3 23 2 46 4
24 8 70 9 103 l0 61 63 27 c35 15 79 41 98 57 19 16 37 29 40 30 3 0 9 -55 13
-122z m-632 55 c-6 -2 -9 -10 -6 -15 4 -7 2 -8 -4 -4 -8 5 -12 -3 -12 -23 0
-18 6 -31 15 -34 11 -4 10 -4 -2 -3 -13 1 -19 11 -21 35 -3 32 9 52 33 50 6 0
4 -3 -3 -6z m146 -18 c12 -9 39 -22 59 -30 21 -7 31 -14 23 -14 -9 -1 -34 9
-55 21 -22 11 -65 24 -95 28 l-55 7 50 2 c32 0 59 -5 73 -14z m112 -70 c0 -24
-2 -25 -67 -23 l-68 2 63 3 c54 3 62 7 62 23 0 11 2 20 5 20 3 0 5 -11 5 -25z
m110 -4 c0 -17 -4 -32 -8 -35 -5 -3 -6 8 -4 25 4 26 1 29 -22 29 -24 0 -26 -4
-28 -42 -1 -39 -2 -40 -5 -10 -6 48 2 62 37 62 27 0 30 -3 30 -29z m-251 -7
c8 -7 -54 -2 -79 6 -17 6 -9 7 25 3 28 -3 52 -7 54 -9z m-64 -50 c33 -7 95
-14 138 -14 67 0 77 -2 76 -17 0 -11 -3 -13 -6 -6 -3 10 -26 11 -86 7 -74 -6
-126 1 -183 23 -11 4 -14 -6 -14 -46 l0 -52 53 -24 c28 -14 45 -25 37 -25 -8
0 -33 10 -55 23 -39 22 -40 24 -45 90 -4 57 -3 66 10 61 8 -3 42 -12 75 -20z
m242 -46 c-3 -7 -5 -2 -5 12 0 14 2 19 5 13 2 -7 2 -19 0 -25z m60 -25 c-3
-10 -5 -2 -5 17 0 19 2 27 5 18 2 -10 2 -26 0 -35z m267 -94 c12 -118 7 -223
-14 -289 -11 -34 -20 -78 -20 -98 0 -34 0 -35 -37 -28 -21 3 -50 6 -65 6 -26
0 -28 3 -28 44 0 24 4 66 9 93 8 40 6 62 -9 109 l-18 59 32 28 31 28 -54 -6
c-94 -11 -114 -24 -130 -86 -8 -30 -34 -103 -58 -164 -23 -60 -46 -125 -49
-142 -6 -30 -9 -33 -43 -32 -84 2 -80 -6 -85 179 -2 91 -7 184 -11 208 l-8 42
70 -6 c97 -9 175 2 218 31 19 14 63 31 98 39 34 8 80 22 102 30 22 8 45 15 51
15 6 1 14 -25 18 -60z m-294 26 c-7 -8 -17 -15 -23 -15 -6 0 -2 7 9 15 25 19
30 19 14 0z m-192 -22 c-10 -2 -26 -2 -35 0 -10 3 -2 5 17 5 19 0 27 -2 18 -5z
m140 0 c-10 -2 -28 -2 -40 0 -13 2 -5 4 17 4 22 1 32 -1 23 -4z m313 -497 c11
-14 43 -32 72 -42 53 -17 87 -39 87 -57 0 -13 -210 -2 -262 13 -41 12 -45 23
-32 90 l7 32 55 -6 c41 -5 59 -12 73 -30z m-416 -36 c27 0 33 -4 38 -27 3 -16
22 -47 41 -70 20 -22 36 -46 36 -52 0 -28 -91 -40 -149 -20 -41 15 -61 55 -61
125 l0 57 31 -7 c17 -3 46 -6 64 -6z"/>
<path d="M1461 3043 c-1 -12 4 -25 9 -28 12 -7 12 2 0 30 -8 19 -9 19 -9 -2z"/>
<path d="M1471 2984 c0 -11 3 -14 6 -6 3 7 2 16 -1 19 -3 4 -6 -2 -5 -13z"/>
<path d="M2007 3154 c-15 -15 -6 -24 24 -24 20 0 29 4 27 13 -5 14 -40 21 -51
11z"/>
<path d="M1850 3105 c-7 -9 -11 -17 -9 -19 7 -7 49 13 49 24 0 15 -26 12 -40
-5z"/>
<path d="M2033 3083 c-17 -6 -17 -38 0 -52 15 -12 37 3 37 25 0 16 -22 32 -37
27z"/>
<path d="M1897 3044 c-12 -12 -8 -41 7 -53 19 -16 44 14 30 37 -12 19 -27 25
-37 16z"/>
<path d="M1635 2921 c-3 -6 -5 -11 -3 -12 36 -8 49 -7 46 3 -6 17 -34 22 -43
9z"/>
<path d="M1912 2918 c-14 -14 -16 -38 -4 -38 4 0 13 5 19 11 8 8 17 8 31 0 42
-23 112 -7 112 26 0 13 -3 13 -15 3 -15 -12 -82 -10 -115 4 -9 4 -21 1 -28 -6z"/>
<path d="M2530 3002 c-27 -8 -59 -44 -65 -73 -7 -32 16 -83 44 -99 47 -25 102
-7 127 41 19 37 11 79 -19 107 -23 22 -62 33 -87 24z"/>
<path d="M3054 2997 c-11 -6 -14 -35 -14 -133 l0 -125 -31 23 c-26 19 -43 23
-109 23 -71 0 -82 -3 -122 -30 -133 -94 -133 -328 0 -420 39 -27 52 -30 120
-30 65 0 82 4 110 24 18 13 34 22 35 20 22 -41 24 -42 76 -42 34 1 57 6 62 14
11 18 11 650 0 667 -9 15 -104 22 -127 9z m-51 -357 c59 -47 56 -153 -6 -190
-81 -50 -167 -1 -167 95 0 41 22 89 47 104 31 18 98 13 126 -9z"/>
<path d="M3779 2995 c-54 -29 -60 -102 -13 -146 71 -67 185 22 140 110 -27 51
-75 64 -127 36z"/>
<path d="M3266 2981 c-8 -12 -11 -660 -3 -667 8 -9 112 -8 126 0 7 5 11 52 11
142 0 136 6 166 39 191 22 17 63 16 87 -1 17 -13 20 -31 24 -173 l5 -158 58
-5 c32 -3 63 -2 70 2 7 4 10 62 9 188 -3 210 -13 244 -78 275 -50 24 -139 17
-182 -13 l-31 -23 -3 123 -3 123 -62 3 c-34 2 -64 -1 -67 -7z"/>
<path d="M2491 2766 c-8 -9 -11 -79 -9 -232 l3 -219 58 -5 c32 -3 64 -2 72 3
12 7 15 45 15 225 0 156 -3 221 -12 230 -17 17 -113 15 -127 -2z"/>
<path d="M3762 2768 c-9 -9 -12 -74 -12 -230 0 -180 3 -218 15 -225 8 -5 40
-6 72 -3 l58 5 3 219 c2 153 -1 223 -9 232 -14 17 -110 19 -127 2z"/>
<path d="M2642 2083 l3 -158 25 0 25 0 3 158 3 157 -31 0 -31 0 3 -157z"/>
<path d="M3129 2224 c-9 -11 -10 -20 -2 -32 15 -24 44 -27 59 -7 28 38 -27 75
-57 39z"/>
<path d="M3003 2198 c-4 -7 -8 -24 -9 -38 0 -14 -5 -24 -11 -23 -6 1 -13 -6
-16 -16 -5 -20 4 -42 19 -44 5 -1 10 -28 10 -60 2 -79 33 -112 88 -91 24 9 21
54 -4 54 -17 0 -20 7 -20 49 0 41 3 50 21 54 15 4 20 12 17 29 -2 13 -10 23
-18 23 -9 0 -16 12 -18 30 -5 41 -40 61 -59 33z"/>
<path d="M2216 2129 c-47 -37 -27 -90 45 -119 16 -7 29 -17 29 -22 0 -17 -30
-20 -54 -5 -22 15 -25 15 -40 -2 -22 -24 -21 -28 14 -46 45 -23 97 -19 125 10
14 13 25 30 25 37 0 24 -31 58 -72 79 -29 15 -37 24 -29 32 7 7 17 7 35 -1 20
-9 27 -7 41 8 16 18 15 19 -14 34 -41 22 -73 20 -105 -5z"/>
<path d="M3585 2142 c-3 -3 -26 -6 -52 -6 l-48 -1 0 -105 0 -104 25 0 c24 -1
25 3 30 69 6 78 13 95 39 95 30 0 40 -22 43 -95 3 -67 4 -70 28 -70 24 1 25 3
28 81 2 68 0 84 -17 106 -19 24 -64 42 -76 30z"/>
<path d="M3752 2138 c-23 -12 -36 -43 -30 -74 1 -10 23 -30 48 -44 25 -14 44
-31 43 -36 -3 -16 -34 -16 -52 0 -16 15 -19 14 -37 -5 -19 -21 -19 -21 5 -40
35 -28 101 -26 130 5 35 38 25 74 -28 106 -25 14 -46 31 -49 38 -5 15 30 16
46 0 8 -8 15 -8 27 2 24 20 18 37 -16 49 -39 13 -57 13 -87 -1z"/>
<path d="M2419 2112 c-24 -21 -32 -38 -36 -75 -5 -43 -3 -49 30 -82 28 -28 43
-35 74 -35 77 0 132 62 119 134 -15 82 -123 115 -187 58z m121 -63 c15 -28
-11 -69 -45 -69 -45 0 -70 47 -42 82 26 33 66 27 87 -13z"/>
<path d="M2747 2134 c-4 -4 -7 -42 -7 -84 0 -63 4 -82 21 -104 22 -28 64 -35
99 -16 10 6 21 6 24 2 3 -5 15 -8 28 -7 22 2 23 4 23 106 l0 104 -25 0 c-24 0
-25 -3 -30 -69 -4 -54 -9 -71 -25 -82 -35 -23 -49 -2 -55 78 -4 64 -8 73 -25
76 -12 2 -24 0 -28 -4z"/>
<path d="M3135 2127 c-3 -7 -4 -56 -3 -108 3 -93 3 -94 28 -94 l25 0 0 105 c0
101 -1 105 -23 108 -12 2 -24 -3 -27 -11z"/>
<path d="M3266 2115 c-82 -76 -34 -195 78 -195 44 0 101 47 110 91 19 98 -114
173 -188 104z m102 -41 c24 -17 30 -62 10 -82 -7 -7 -24 -12 -38 -12 -33 0
-50 17 -50 51 0 24 30 59 50 59 3 0 16 -7 28 -16z"/>
</g>
</svg>
